<?xml version="1.0" encoding="iso-8859-1"?>
<!-- Generator: Adobe Illustrator 19.0.0, SVG Export Plug-In . SVG Version: 6.00 Build 0)  -->
<svg version="1.1" id="Layer_1" xmlns="http://www.w3.org/2000/svg" xmlns:xlink="http://www.w3.org/1999/xlink" x="0px" y="0px"
	 viewBox="0 0 512 512" style="enable-background:new 0 0 512 512;" xml:space="preserve">
<g>
	<g>
		<path d="M0,251.424v37.147c0,9.681,7.708,17.544,17.32,17.832v-72.811C7.708,233.88,0,241.743,0,251.424z"/>
	</g>
</g>
<g>
	<g>
		<path d="M61.814,127.915c-14.686,0-26.634,11.948-26.634,26.634v38.295h297.799v-64.929H61.814z"/>
	</g>
</g>
<g>
	<g>
		<path d="M417.43,140.407c-4.633-7.704-13.096-12.491-22.086-12.491h-38.555v64.928h0.001h92.174L417.43,140.407z"/>
	</g>
</g>
<g>
	<g>
		<path d="M497.118,316.1v-50.392c0-14.155-5.451-27.522-15.349-37.642l-11.162-11.411H35.179v99.592
			c-8.033,1.745-14.053,8.887-14.053,17.443c0,3.035,0.762,5.89,2.098,8.393c3.005,5.63,8.933,9.467,15.761,9.467h32.112
			c0.224-27.369,22.549-49.567,49.97-49.567c27.42,0,49.745,22.198,49.969,49.567h198.705c0.224-27.369,22.549-49.567,49.969-49.567
			c27.421,0,49.747,22.198,49.97,49.567h24.46c7.004,0.002,13.053-4.043,15.977-9.917c1.192-2.394,1.88-5.084,1.88-7.941
			C512,324.845,505.561,317.52,497.118,316.1z"/>
	</g>
</g>
<g>
	<g>
		<path d="M121.068,319.844c-17.712,0-32.122,14.41-32.122,32.121s14.41,32.121,32.122,32.121c17.711,0,32.121-14.41,32.121-32.121
			S138.779,319.844,121.068,319.844z"/>
	</g>
</g>
<g>
	<g>
		<path d="M419.711,319.844c-17.711,0-32.121,14.41-32.121,32.121s14.41,32.121,32.121,32.121c17.712,0,32.122-14.41,32.122-32.121
			S437.423,319.844,419.711,319.844z"/>
	</g>
</g>
<g>
</g>
<g>
</g>
<g>
</g>
<g>
</g>
<g>
</g>
<g>
</g>
<g>
</g>
<g>
</g>
<g>
</g>
<g>
</g>
<g>
</g>
<g>
</g>
<g>
</g>
<g>
</g>
<g>
</g>
</svg>
